<svg id="Layer_1" data-name="Layer 1" xmlns="http://www.w3.org/2000/svg" viewBox="0 0 749.42 760.7"><defs><style>.cls-1{fill:none;stroke:#c09f4f;stroke-miterlimit:10;stroke-width:7px;}.cls-2{fill:#c09f4f;}</style></defs><circle class="cls-1" cx="374.71" cy="380.35" r="354.18"/><path class="cls-2" d="M160.15,230.16,314.58,589s2.74,7.7,5.61,8.48,5-3.39,5-3.39L469,244.18s13.5-34.5,28.89-48.46,41.74-23.22,41.74-23.22-50.08-17.34-123.26-4.82S304.41,231.85,291.89,256.9s-18.65,42.39-18.65,42.39L327.3,431.42s-9.59-37.18-4.5-83.74,18.13-92.48,47.61-125.35,64-38.74,65.74-38.74,16.17,1.7,17.22,12.26-.66,27-10.44,53.41S339.82,504.4,339.82,504.4L226.15,236.16s-13.5-27-3.72-42.07S251,180,251,180v-8.6l-152,.45s-2.15,6.65,2.87,7.76,24.4,3.2,34.7,14.42S160.15,230.16,160.15,230.16Z"/><path class="cls-2" d="M520,196.24s26.61,8.22,44.22,28c23.67,24.65,32.08,69.07,32.08,69.07l10.83.78-6.52-94.83S568.41,181.76,558.76,182,520,196.24,520,196.24Z"/><path class="cls-2" d="M518.65,383.48H650.91v10.57s-28.37,1.76-33.46,19.17-2.74,135.39-2.74,135.39S571.54,583.11,511,591.2s-98.61,2.35-131.74-11.48c-17-5.87-24.13-11.61-24.13-11.61l16.3-39.91s34.44,34.56,62.87,41.09,67.05,9.91,97.57-6.79,26.35-20.6,27.39-24,.39-108.65.52-113.08-9.26-25.31-21.59-28.44-19.56-3.13-19.56-3.13Z"/></svg>