<svg id="Layer_1" data-name="Layer 1" xmlns="http://www.w3.org/2000/svg" viewBox="0 0 749.42 760.7"><defs><style>.cls-1{fill:#c09f4f;}.cls-2{fill:none;stroke:#c09f4f;stroke-miterlimit:10;stroke-width:7px;}</style></defs><path class="cls-1" d="M162.26,222.3,316.7,581.12s2.74,7.7,5.61,8.48,4.95-3.39,4.95-3.39L471.07,236.32s13.5-34.5,28.89-48.46,41.74-23.21,41.74-23.21-50.09-17.35-123.26-4.83S306.52,224,294,249s-18.65,42.39-18.65,42.39l54.06,132.13s-9.58-37.17-4.5-83.74S343,247.34,372.52,214.47s64.05-38.74,65.74-38.74,16.18,1.7,17.22,12.26-.65,27-10.44,53.42-103.1,255.13-103.1,255.13L228.26,228.3s-13.5-27-3.72-42.07,28.57-14.08,28.57-14.08v-8.61l-152,.45s-2.15,6.66,2.87,7.77,24.39,3.19,34.69,14.41S162.26,222.3,162.26,222.3Z"/><path class="cls-1" d="M522.13,188.39s26.61,8.21,44.22,28C590,241,598.44,285.43,598.44,285.43l10.82.78-6.52-94.82s-32.22-17.48-41.87-17.22S522.13,188.39,522.13,188.39Z"/><path class="cls-1" d="M520.76,375.62H653v10.57s-28.37,1.76-33.45,19.17-2.74,135.4-2.74,135.4-43.18,34.5-103.7,42.58-98.61,2.35-131.74-11.48c-16.95-5.87-24.13-11.6-24.13-11.6l16.31-39.92s34.43,34.57,62.87,41.09,67,9.91,97.56-6.78,26.35-20.61,27.39-24,.39-108.66.52-113.09-9.26-25.3-21.58-28.44S520.76,386,520.76,386Z"/><rect class="cls-2" x="63.04" y="52.07" width="636.32" height="636.32"/></svg>